HIERARCHY
ROOT Hips
{
 OFFSET 0.000000 0.000000 0.000000
 CHANNELS 6 Xposition Yposition Zposition Yrotation Xrotation Zrotation
 JOINT Chest
 {
  OFFSET 0.000000 9.585900 0.002600
  CHANNELS 3 Yrotation Xrotation Zrotation
  JOINT Chest2
  {
   OFFSET 0.000000 9.601200 -0.005300
   CHANNELS 3 Yrotation Xrotation Zrotation
   JOINT Chest3
   {
    OFFSET 0.000000 9.561800 0.000000
    CHANNELS 3 Yrotation Xrotation Zrotation
    JOINT Chest4
    {
     OFFSET 0.000000 9.552100 0.000000
     CHANNELS 3 Yrotation Xrotation Zrotation
     JOINT Neck
     {
      OFFSET 0.000000 14.453000 0.000000
      CHANNELS 3 Yrotation Xrotation Zrotation
      JOINT Head
      {
       OFFSET 0.000000 8.936500 -0.011300
       CHANNELS 3 Yrotation Xrotation Zrotation
       End Site
       {
        OFFSET 0.000000 17.073600 -0.006000
       }
      }
     }
     JOINT RightCollar
     {
      OFFSET -2.921100 9.558500 0.000000
      CHANNELS 3 Yrotation Xrotation Zrotation
      JOINT RightShoulder
      {
       OFFSET -13.519700 0.000000 0.000000
       CHANNELS 3 Yrotation Xrotation Zrotation
       JOINT RightElbow
       {
        OFFSET 0.000000 -29.696600 0.000000
        CHANNELS 3 Yrotation Xrotation Zrotation
        JOINT RightWrist
        {
         OFFSET 0.000000 -24.004700 0.000000
         CHANNELS 3 Yrotation Xrotation Zrotation
         End Site
         {
          OFFSET 0.000000 -17.728500 0.000000
         }
        }
       }
      }
     }
     JOINT LeftCollar
     {
      OFFSET 2.921100 9.558500 0.000000
      CHANNELS 3 Yrotation Xrotation Zrotation
      JOINT LeftShoulder
      {
       OFFSET 13.519700 0.000000 0.000000
       CHANNELS 3 Yrotation Xrotation Zrotation
       JOINT LeftElbow
       {
        OFFSET 0.000000 -29.696600 0.000000
        CHANNELS 3 Yrotation Xrotation Zrotation
        JOINT LeftWrist
        {
         OFFSET 0.000000 -24.004700 0.000000
         CHANNELS 3 Yrotation Xrotation Zrotation
         End Site
         {
          OFFSET 0.000000 -17.728500 0.000000
         }
        }
       }
      }
     }
    }
   }
  }
 }
 JOINT RightHip
 {
  OFFSET -7.771700 -0.012900 -0.001300
  CHANNELS 3 Yrotation Xrotation Zrotation
  JOINT RightKnee
  {
   OFFSET 0.000000 -40.869800 0.001200
   CHANNELS 3 Yrotation Xrotation Zrotation
   JOINT RightAnkle
   {
    OFFSET 0.000000 -39.717900 0.002100
    CHANNELS 3 Yrotation Xrotation Zrotation
    JOINT RightToe
    {
     OFFSET 0.000000 -4.965400 11.033500
     CHANNELS 3 Yrotation Xrotation Zrotation
     End Site
     {
      OFFSET 0.000000 -1.423100 5.872300
     }
    }
   }
  }
 }
 JOINT LeftHip
 {
  OFFSET 7.771700 -0.012900 -0.001300
  CHANNELS 3 Yrotation Xrotation Zrotation
  JOINT LeftKnee
  {
   OFFSET 0.000000 -40.869800 0.001200
   CHANNELS 3 Yrotation Xrotation Zrotation
   JOINT LeftAnkle
   {
    OFFSET 0.000000 -39.717900 0.002100
    CHANNELS 3 Yrotation Xrotation Zrotation
    JOINT LeftToe
    {
     OFFSET 0.000000 -4.965400 11.033500
     CHANNELS 3 Yrotation Xrotation Zrotation
     End Site
     {
      OFFSET 0.000000 -1.423100 5.872300
     }
    }
   }
  }
 }
}
MOTION
Frames: 15
Frame Time: 0.008333
0.000000 85.388000 0.000000 0.000000 -5.767877 0.000000 0.000000 11.653817 0.000000 0.000000 -5.885947 0.000000 0.000000 -0.000000 0.000000 0.000000 -0.000000 0.000000 0.000000 12.528835 0.000000 0.000000 0.711642 0.000000 0.000000 -0.000000 0.000000 0.000000 0.000000 -90.000000 0.000000 -2.309062 0.000000 0.000000 2.309062 0.000000 0.000000 -0.000000 0.000000 0.000000 -0.000000 90.000000 0.000000 -2.309062 0.000000 0.000000 2.309062 0.000000 0.000000 8.520406 0.000000 0.000000 1.905762 0.000000 -0.000000 -4.658285 0.000000 0.000000 -0.000000 0.000000 0.000000 8.520406 0.000000 0.000000 1.905762 0.000000 -0.000000 -4.658285 0.000000 0.000000 -0.000000 0.000000
15.364394 50.009765 54.135771 172.932541 -31.996745 -5.799251 9.337844 23.519941 7.527660 1.325683 3.940055 0.804235 2.140691 6.252887 1.315833 7.474586 19.637918 5.200009 -5.109665 18.564247 2.127571 -10.055899 -0.898816 5.557530 -3.183513 -0.765626 -3.039317 22.076555 -26.545160 -9.249884 179.629209 -59.251141 177.712546 -10.347123 -17.137309 15.896016 -16.692676 3.197720 -2.797709 -9.450050 -32.199833 6.901925 167.203014 -53.681149 -176.873037 40.533189 -12.068347 -13.356022 -1.554282 -48.526295 10.094941 -121.868766 85.760260 -110.270056 -1.395477 -12.622891 -4.944885 -0.273469 0.743649 -0.123858 -7.043720 -52.451920 14.609159 -152.906466 80.916241 -160.455983 0.321546 -16.965549 7.947987 -0.143122 -0.723537 -0.108346
15.365942 50.013542 54.143952 172.909897 -32.011204 -5.813569 9.347991 23.529527 7.557501 1.327460 3.950562 0.808463 2.134075 6.292846 1.342753 7.476868 19.636722 5.190082 -5.115567 18.551354 2.100029 -10.080641 -0.890972 5.549096 -3.198205 -0.756067 -3.050636 22.078824 -26.430953 -9.062221 179.926400 -59.287082 177.467347 -10.345140 -17.144418 15.814257 -16.715262 3.201698 -2.787525 -9.499390 -32.184425 6.878884 166.616926 -53.829415 -176.387119 40.488047 -11.880393 -13.312337 -1.550561 -48.509883 10.128919 -121.514734 85.762139 -109.914544 -1.375076 -12.599972 -4.939725 -0.242789 0.739312 -0.123489 -7.062453 -52.438299 14.640812 -152.869205 80.919741 -160.402607 0.332853 -16.956714 7.942616 -0.130382 -0.732220 -0.103334
15.364748 50.016858 54.150618 172.905273 -32.029330 -5.819155 9.340578 23.547596 7.568712 1.318116 3.962100 0.818307 2.139250 6.305746 1.345720 7.480739 19.637422 5.183657 -5.124044 18.570954 2.105608 -10.090976 -0.950619 5.519853 -3.217005 -0.746887 -3.047609 22.076922 -26.330593 -8.893375 -179.800438 -59.286458 177.252679 -10.353001 -17.162644 15.789582 -16.736095 3.207198 -2.763173 -9.540521 -32.175678 6.863275 166.079619 -53.959499 -175.946854 40.441417 -11.700437 -13.324446 -1.540976 -48.488442 10.131508 -121.307006 85.766315 -109.704554 -1.353058 -12.590217 -4.940340 -0.235307 0.740286 -0.119163 -7.087910 -52.419467 14.639824 -152.947366 80.933497 -160.470180 0.353587 -16.952602 7.932654 -0.134589 -0.730638 -0.120080
15.364936 50.020441 54.153701 172.892541 -32.064246 -5.823458 9.338958 23.579665 7.586666 1.327914 3.968563 0.815843 2.129239 6.323301 1.359546 7.468671 19.667850 5.209320 -5.127107 18.541013 2.072808 -10.092583 -1.040389 5.485592 -3.215251 -0.789782 -3.088425 22.062639 -26.243365 -8.742189 -179.577943 -59.254378 177.091925 -10.368413 -17.186800 15.810716 -16.725532 3.154873 -2.787450 -9.579337 -32.169199 6.866582 165.621477 -54.072980 -175.586316 40.398930 -11.525840 -13.386728 -1.524488 -48.450950 10.141150 -121.097088 85.767439 -109.485799 -1.369087 -12.582169 -4.931427 -0.203600 0.738615 -0.121935 -7.103439 -52.382125 14.639053 -153.082037 80.945546 -160.594387 0.380638 -16.956113 7.915130 -0.157478 -0.731738 -0.122655
15.365787 50.022271 54.154465 172.877543 -32.097827 -5.824434 9.333441 23.610220 7.602088 1.341917 3.975255 0.811692 2.116455 6.338532 1.371673 7.449833 19.696783 5.233088 -5.132945 18.478192 2.064066 -10.075173 -1.139611 5.420635 -3.198813 -0.842075 -3.138468 22.029104 -26.174839 -8.612894 -179.438539 -59.193429 177.005035 -10.384804 -17.209870 15.858719 -16.705293 3.101197 -2.811618 -9.629873 -32.187231 6.900093 165.276401 -54.182199 -175.300993 40.361901 -11.359954 -13.482378 -1.506197 -48.416863 10.147121 -120.979665 85.768835 -109.360448 -1.376707 -12.575713 -4.928020 -0.244660 0.735006 -0.122416 -7.112792 -52.347769 14.636603 -153.224815 80.952555 -160.726276 0.401625 -16.962169 7.899584 -0.139611 -0.732695 -0.114838
15.368980 50.023340 54.150575 172.877613 -32.141093 -5.837876 9.324795 23.652203 7.624379 1.317338 3.987559 0.826468 2.129607 6.342840 1.362484 7.427207 19.713518 5.242216 -5.112574 18.438641 2.029531 -10.067471 -1.273788 5.404581 -3.162495 -0.873035 -3.182772 21.975859 -26.137250 -8.516936 -179.412406 -59.109633 177.010230 -10.395376 -17.228026 15.915910 -16.716008 2.999936 -2.767470 -9.605552 -32.178096 6.880737 165.050976 -54.288304 -175.098290 40.322735 -11.208963 -13.585419 -1.506824 -48.370736 10.161781 -120.960298 85.771140 -109.336643 -1.372955 -12.570322 -4.925602 -0.255560 0.727645 -0.122890 -7.138430 -52.304038 14.643975 -153.357907 80.950152 -160.848295 0.416469 -16.971880 7.887213 -0.143655 -0.733090 -0.126608
15.369785 50.020688 54.144836 172.903921 -32.164003 -5.842198 9.280130 23.681779 7.619755 1.311144 3.991183 0.828286 2.138646 6.345512 1.356933 7.379858 19.728588 5.257689 -5.079249 18.403702 1.994636 -10.056677 -1.437241 5.390846 -3.131422 -0.935537 -3.230983 21.936638 -26.087833 -8.439795 -179.518759 -59.008203 177.115093 -10.393860 -17.245667 15.970327 -16.702294 2.885620 -2.745906 -9.577066 -32.161986 6.883419 164.937465 -54.380032 -175.000706 40.279816 -11.076073 -13.666723 -1.512167 -48.344976 10.143889 -121.119394 85.762778 -109.490934 -1.369313 -12.586391 -4.928773 -0.250443 0.728539 -0.120190 -7.167490 -52.283979 14.628117 -153.459948 80.945133 -160.951239 0.427546 -16.977072 7.879099 -0.153828 -0.733768 -0.123694
15.375173 50.017463 54.134494 172.930427 -32.195682 -5.862015 9.248598 23.717282 7.633103 1.312799 3.992091 0.826246 2.134399 6.349028 1.358304 7.359624 19.733075 5.258293 -5.119717 18.271082 2.022334 -9.992332 -1.533230 5.305668 -3.143625 -1.095531 -3.272542 21.897628 -25.969185 -8.339299 -179.759978 -58.898457 177.318809 -10.377902 -17.273438 16.013808 -16.711441 2.776098 -2.712042 -9.549619 -32.153284 6.909604 164.942740 -54.462862 -174.995345 40.239157 -10.970973 -13.709899 -1.528779 -48.309511 10.144327 -121.355307 85.758921 -109.721625 -1.332270 -12.601008 -4.941190 -0.239931 0.726936 -0.113171 -7.215034 -52.253945 14.631626 -153.598690 80.929838 -161.079725 0.439411 -16.999490 7.857509 -0.154010 -0.727667 -0.118161
15.381096 50.011912 54.121761 172.960964 -32.215972 -5.876255 9.202914 23.738835 7.634063 1.317881 3.997332 0.823972 2.107260 6.351338 1.366800 7.292016 19.730321 5.256672 -5.083402 18.187016 1.989169 -9.950153 -1.689819 5.267762 -3.084077 -1.243542 -3.343155 21.853478 -25.874270 -8.273162 179.876700 -58.792250 177.616120 -10.351656 -17.313959 16.042951 -16.664030 2.649852 -2.709868 -9.513106 -32.140760 6.942673 165.060661 -54.546887 -175.076878 40.206553 -10.905631 -13.715679 -1.542939 -48.291246 10.142748 -121.667676 85.744320 -110.026599 -1.336680 -12.614729 -4.948316 -0.246959 0.716609 -0.105899 -7.288443 -52.237223 14.643359 -153.768887 80.909101 -161.252979 0.453032 -17.011354 7.838487 -0.155661 -0.730218 -0.111021
15.387881 50.003542 54.108523 172.994808 -32.214353 -5.887728 9.142187 23.733508 7.622838 1.282267 3.986467 0.829412 2.123424 6.366823 1.362073 7.214685 19.718397 5.248572 -5.041981 18.102216 1.959823 -9.903122 -1.854630 5.234595 -3.009056 -1.371682 -3.406074 21.805282 -25.807819 -8.235159 179.420504 -58.696646 177.987126 -10.318505 -17.360335 16.059587 -16.610722 2.522725 -2.703774 -9.471930 -32.126770 6.979063 165.278954 -54.638318 -175.237106 40.183240 -10.886993 -13.692434 -1.563787 -48.292308 10.135665 -121.989728 85.733750 -110.343531 -1.331956 -12.637892 -4.952483 -0.241443 0.718650 -0.107404 -7.333602 -52.246089 14.646498 -153.843856 80.886274 -161.331347 0.462628 -17.018336 7.852407 -0.158174 -0.736997 -0.133736
15.401253 49.993229 54.096320 173.004696 -32.192687 -5.917511 9.128339 23.703859 7.642479 1.260116 3.969770 0.828333 2.106666 6.369456 1.365722 7.157653 19.704674 5.234662 -5.014076 18.011317 1.945380 -9.853885 -2.026769 5.207248 -2.947146 -1.511601 -3.454777 21.754270 -25.745848 -8.208289 178.911375 -58.615151 178.402475 -10.279389 -17.402471 16.065579 -16.573395 2.391360 -2.682694 -9.430677 -32.108459 7.019424 165.561248 -54.736560 -175.448864 40.163539 -10.915900 -13.651713 -1.599318 -48.315994 10.180970 -122.195275 85.718154 -110.543486 -1.306728 -12.674522 -4.948046 -0.265952 0.740947 -0.121102 -7.389726 -52.271565 14.698858 -153.884338 80.860821 -161.366919 0.499453 -17.032715 7.853415 -0.190380 -0.739596 -0.141825
15.412664 49.984520 54.077706 173.045918 -32.191138 -5.939447 9.081162 23.698621 7.638422 1.238359 3.947343 0.826127 2.048135 6.331801 1.362747 7.140345 19.724954 5.228066 -4.986399 17.914539 1.933529 -9.806257 -2.209553 5.185324 -2.883975 -1.661480 -3.504120 21.699878 -25.685667 -8.189736 178.393024 -58.552388 178.827692 -10.238560 -17.433889 16.070925 -16.535530 2.254761 -2.659846 -9.397046 -32.079744 7.066654 165.857699 -54.839235 -175.668451 40.140774 -10.980619 -13.610006 -1.634096 -48.317746 10.190231 -122.581967 85.697699 -110.926111 -1.298063 -12.694640 -4.958731 -0.277578 0.732297 -0.116289 -7.458248 -52.276341 14.718221 -153.956436 80.828829 -161.440695 0.515578 -17.056124 7.842467 -0.193406 -0.735807 -0.138285
15.425879 49.977516 54.054822 173.078590 -32.206638 -5.957631 9.009378 23.670664 7.621371 1.244420 3.961365 0.825852 2.014470 6.305959 1.359675 7.098358 19.727114 5.222874 -4.960462 17.810044 1.924480 -9.763399 -2.406184 5.169653 -2.823987 -1.823380 -3.555962 21.642468 -25.622815 -8.176928 177.902044 -58.513209 179.227283 -10.205103 -17.456041 16.092531 -16.499581 2.112851 -2.633098 -9.369020 -32.038668 7.114585 166.138179 -54.952320 -175.869047 40.118545 -11.064591 -13.588776 -1.665453 -48.305581 10.213936 -122.999609 85.669330 -111.344948 -1.321323 -12.712624 -4.958199 -0.260863 0.714265 -0.113470 -7.519985 -52.261220 14.741673 -154.019920 80.788193 -161.509882 0.529891 -17.083364 7.837046 -0.192344 -0.736758 -0.138403
15.438310 49.968333 54.034186 173.112170 -32.193192 -5.968093 8.957620 23.641100 7.602241 1.225931 3.940815 0.823289 1.993752 6.288317 1.356800 7.043986 19.713245 5.215934 -4.936281 17.698552 1.918688 -9.725398 -2.615345 5.160999 -2.765262 -1.993618 -3.608819 21.577788 -25.551803 -8.167748 177.465237 -58.497979 179.578871 -10.182281 -17.470494 16.135665 -16.463666 1.965203 -2.601175 -9.334838 -31.980225 7.153717 166.390081 -55.083779 -176.045127 40.104944 -11.149917 -13.602259 -1.691273 -48.318735 10.212397 -123.469960 85.656604 -111.814672 -1.303236 -12.742230 -4.971195 -0.283855 0.710629 -0.107378 -7.585332 -52.276069 14.769331 -154.033055 80.754424 -161.538703 0.534280 -17.094414 7.846207 -0.211812 -0.734323 -0.133288
